  <!-- xmlns:xlink="http://www.w3.org/1999/xlink" -->
<svg
  xmlns="http://www.w3.org/2000/svg"
  class="inline-block text-center align-baseline"
>
  <defs>

    <!-- 1. Mentalism -->
    <symbol id="Mentalism" fill-rule="evenodd" viewBox="0 0 512 512">
      <ellipse
        fill="currentcolor"
        rx="256"
        ry="256"
        cx="256"
        cy="256"
        transform="matrix(1, 0, 0, 1, 0, 0)"
      />
    </symbol>

    <!-- 2. Correspondence -->
    <symbol id="Correspondence" fill-rule="nonzero" viewBox="0 0 512 512">
      <path
        fill="currentcolor"
        rx="0"
        ry="0"
        d="M231.541,256.000L5.100,482.472C-5.795,493.368,1.921,512.000,17.330,512.000L494.670,512.000C510.079,512.000,517.795,493.368,506.900,482.472L280.459,256.000L506.900,29.528C517.795,18.632,510.079,0.000,494.670,0.000L17.330,0.000C1.921,0.000,-5.795,18.632,5.100,29.528L231.541,256.000ZM255.965,231.538L59.049,34.595L452.882,34.595L255.965,231.538ZL255.965,231.538Z"
      />
    </symbol>

    <!-- 3. Vibration -->
    <symbol id="Vibration" fill-rule="nonzero" viewBox="0 0 512 512">
      <path
        fill="currentcolor"
        d="M256.000,479.697C379.545,479.697,479.697,379.545,479.697,256.000C479.697,132.455,379.545,32.303,256.000,32.303C132.455,32.303,32.303,132.455,32.303,256.000C32.303,379.545,132.455,479.697,256.000,479.697ZZM256.000,512.000C114.615,512.000,0.000,397.385,0.000,256.000C0.000,114.615,114.615,0.000,256.000,0.000C397.385,0.000,512.000,114.615,512.000,256.000C512.000,397.385,397.385,512.000,256.000,512.000ZZM256.808,398.940C335.305,398.940,398.940,335.305,398.940,256.808C398.940,178.310,335.305,114.675,256.808,114.675C178.310,114.675,114.675,178.310,114.675,256.808C114.675,335.305,178.310,398.940,256.808,398.940ZZM256.808,431.243C160.470,431.243,82.372,353.146,82.372,256.808C82.372,160.470,160.470,82.372,256.808,82.372C353.146,82.372,431.243,160.470,431.243,256.808C431.243,353.146,353.146,431.243,256.808,431.243ZZM256.808,314.953C288.920,314.953,314.953,288.920,314.953,256.808C314.953,224.695,288.920,198.662,256.808,198.662C224.695,198.662,198.662,224.695,198.662,256.808C198.662,288.920,224.695,314.953,256.808,314.953ZZM256.808,347.256C206.855,347.256,166.360,306.761,166.360,256.808C166.360,206.855,206.855,166.360,256.808,166.360C306.761,166.360,347.256,206.855,347.256,256.808C347.256,306.761,306.761,347.256,256.808,347.256ZZ"
      />
    </symbol>

    <!-- 4. Polarity -->
    <symbol id="Polarity" fill-rule="nonzero" viewBox="0 0 512 512">
      <path
        fill="currentcolor"
        d="M474.561,255.574L256.000,37.013L37.439,255.574L474.561,255.574ZZM266.841,4.490L507.510,245.159C513.497,251.146,513.497,260.854,507.510,266.841L266.841,507.510C260.854,513.497,251.146,513.497,245.159,507.510L4.490,266.841C-1.497,260.854,-1.497,251.146,4.490,245.159L245.159,4.490C251.146,-1.497,260.854,-1.497,266.841,4.490ZZ"
      />
    </symbol>

    <!-- 5. Rhythm -->
    <symbol id="Rhythm" fill-rule="nonzero" viewBox="0 0 512 512">
      <path
        fill="currentcolor"
        d="M138.084,177.349C94.966,177.349,52.012,162.628,8.776,133.329C-0.320,127.151,-2.730,114.769,3.380,105.617C9.527,96.421,21.965,93.952,31.129,100.170C103.627,149.315,172.563,149.315,244.795,100.188C323.250,46.835,422.349,46.810,503.016,100.035C512.197,106.099,514.753,118.460,508.763,127.673C502.741,136.952,490.349,139.551,481.078,133.472C413.940,89.159,332.138,89.139,267.192,133.317C224.101,162.619,181.199,177.349,138.084,177.349ZZM503.009,237.281L503.009,237.281ZC512.193,243.346,514.751,255.702,508.766,264.923C502.744,274.201,490.348,276.799,481.078,270.722C413.925,226.414,332.122,226.391,267.191,270.567C224.104,299.866,181.202,314.594,138.075,314.602C94.964,314.602,52.013,299.879,8.777,270.579C-0.323,264.401,-2.732,252.013,3.371,242.884C9.511,233.665,21.960,231.200,31.128,237.420C103.627,286.566,172.563,286.570,244.794,237.438C323.241,184.089,422.340,184.065,503.009,237.281ZZM503.009,374.527L503.009,374.527ZC512.193,380.594,514.751,392.949,508.765,402.172C502.743,411.449,490.347,414.047,481.078,407.970C413.932,363.661,332.137,363.642,267.189,407.814C224.104,437.122,181.202,451.855,138.085,451.855C94.974,451.864,52.015,437.137,8.775,407.827C-0.324,401.647,-2.731,389.260,3.377,380.121C9.520,370.918,21.961,368.449,31.130,374.667C103.637,423.833,172.564,423.831,244.795,374.683C323.245,321.344,422.340,321.320,503.009,374.527ZZ"
      />
    </symbol>

    <!-- 6. Causality -->
    <symbol id="Causality" fill-rule="evenodd" viewBox="0 0 512 512">
      <path
        fill="currentcolor"
        d="M0.000,256.000C0.000,114.615,114.615,0.000,256.000,0.000C397.385,0.000,512.000,114.615,512.000,256.000C512.000,397.385,397.385,512.000,256.000,512.000C114.615,512.000,0.000,397.385,0.000,256.000ZZM256.000,29.880C131.117,29.880,29.880,131.117,29.880,256.000C29.880,380.883,131.117,482.120,256.000,482.120L256.000,29.880ZZM256.000,346.448C206.047,346.448,165.552,305.953,165.552,256.000C165.552,206.047,206.047,165.552,256.000,165.552C305.953,165.552,346.448,206.047,346.448,256.000C346.448,305.953,305.953,346.448,256.000,346.448ZZ"
      />
    </symbol>

    <!-- 7. Gender -->
    <symbol id="Gender" fill-rule="nonzero" viewBox="0 0 512 512">
      <path
        fill="currentcolor"
        d="M148.295,148.295C155.019,113.637,171.798,80.549,198.635,53.712C270.288,-17.941,386.498,-17.897,458.198,53.802C529.897,125.502,529.941,241.712,458.288,313.365C431.451,340.202,398.363,356.981,363.705,363.705C356.981,398.363,340.202,431.451,313.365,458.288C241.712,529.941,125.502,529.897,53.802,458.198C-17.897,386.498,-17.941,270.288,53.712,198.635C80.549,171.798,113.637,155.019,148.295,148.295ZL148.295,148.295ZZM181.090,144.938C228.854,144.338,276.818,162.269,313.275,198.725C349.731,235.182,367.662,283.146,367.062,330.910C392.392,324.320,416.350,311.106,436.190,291.267C495.635,231.822,495.598,135.399,436.100,75.900C376.601,16.402,280.178,16.365,220.733,75.810C200.894,95.650,187.680,119.608,181.090,144.938ZZM144.938,181.090C119.608,187.680,95.650,200.894,75.810,220.733C16.365,280.178,16.402,376.601,75.900,436.100C135.399,495.598,231.822,495.635,291.267,436.190C311.106,416.350,324.320,392.392,330.910,367.062C283.146,367.662,235.182,349.731,198.725,313.275C162.269,276.818,144.338,228.854,144.938,181.090ZZM176.338,176.338C174.429,217.653,189.258,259.611,220.824,291.176C252.389,322.742,294.347,337.571,335.662,335.662C337.571,294.347,322.742,252.389,291.176,220.824C259.611,189.258,217.653,174.429,176.338,176.338ZL176.338,176.338ZZ"
      />
    </symbol>

    <!-- 8. Care -->
    <symbol id="Care" fill-rule="nonzero" viewBox="0 0 512 512">
      <path
        fill="currentcolor"
        d="M256.000,479.697C379.545,479.697,479.697,379.545,479.697,256.000C479.697,132.455,379.545,32.303,256.000,32.303C132.455,32.303,32.303,132.455,32.303,256.000C32.303,379.545,132.455,479.697,256.000,479.697ZZM256.000,512.000C114.615,512.000,0.000,397.385,0.000,256.000C0.000,114.615,114.615,0.000,256.000,0.000C397.385,0.000,512.000,114.615,512.000,256.000C512.000,397.385,397.385,512.000,256.000,512.000ZZ"
      />
    </symbol>
    
    <!-- APP Icons: -->
    <!-- 1. ICON: Custom Color Mode -->
    <symbol id="CustomColorMode" fill-rule="nonzero" viewBox="0 0 532 532">
      <path
        fill="currentcolor"
        d="M38.1538462,256 L473.846154,256 C473.846154,135.686891 376.313109,38.1538462 256,38.1538462 C135.686891,38.1538462 38.1538462,135.686891 38.1538462,256 Z M256,511.666667 C114.799199,511.666667 0.333333333,397.200801 0.333333333,256 C0.333333333,114.799199 114.799199,0.333333333 256,0.333333333 C397.200801,0.333333333 511.666667,114.799199 511.666667,256 C511.666667,397.200801 397.200801,511.666667 256,511.666667 Z"
      />
    </symbol>

    <!-- 2. ICON: Triangle -->
    <symbol id="Trinagle" fill-rule="nonzero" viewBox="0 0 512 512">
      <path
        fill="currentcolor"
        rx="0" ry="0"
        d="M507.471,472.305L256.500,37.000L5.000,472.611L507.471,472.305Z"
      />
    </symbol>

    <!-- TFM LOGO -->
    <symbol id="tfm" fill-rule="nonzero" viewBox="0 0 512 175">
      <path
        fill="currentcolor"
        d="M 0,38.281247 V 0 H 152.09616 V 38.281247 H 99.460642 V 175 H 52.635531 V 38.281247 Z M 169.86908,175 V 0 h 123.04406 v 38.281247 h -75.53539 v 30.078125 h 68.01604 V 106.64064 H 217.37775 V 175 Z M 310.34443,0 h 59.12951 l 40.6729,99.12109 h 2.05076 L 452.87048,0 H 512 V 175 H 465.51667 V 73.82813 h -1.36714 l -38.96396,99.8047 h -28.0267 L 358.19489,73.144526 h -1.36716 V 175 h -46.4833 z"
      />
    </symbol>

    <!-- Short -->
    <symbol id="tfm-s" fill-rule="nonzero" viewBox="0 0 512 130">
      <path
        fill="currentcolor"
        d="M 0,0 V 38.28125 H 52.634766 V 130 H 99.460938 V 38.28125 H 152.0957 V 0 Z m 169.86914,0 v 130 h 47.50781 v -23.35938 h 68.01758 V 68.359375 H 217.37695 V 38.28125 h 75.53711 V 0 Z m 140.47461,0 v 130 h 46.48437 V 73.144531 h 1.36719 L 380.24023,130 h 61.98047 l 21.92969,-56.171875 h 1.36719 V 130 H 512 V 0 h -59.12891 l -40.67382,99.121094 h -2.05079 L 369.47461,0 Z"
      />
    </symbol>

    <!-- LexRex Logomark -->
    <symbol id="lexrex" fill-rule="nonzero" viewBox="0 0 512 318">
      <path
        fill="currentcolor"
        d="M 255.99697,0 136.10594,125.32837 0,65.255581 84.743559,318 H 427.2504 L 512,65.255581 375.89102,125.33139 Z m 0.004,67.370598 87.35514,91.318362 c 10e-4,0.001 10e-4,0.001 0.004,0.004 l 0.004,0.004 c 13.29404,13.90373 33.1863,17.27854 50.38076,9.68897 v 0.004 l 40.59303,-17.9202 -40.54941,120.92234 H 118.20651 L 77.660131,150.46868 118.25801,168.38704 v -0.004 c 17.19315,7.58899 37.08398,4.20877 50.37472,-9.6829 z"
      />
    </symbol>

    <!-- Hero Icons: Pen -->
    <!-- <symbol id="hero-pen" fill-rule="nonzero" viewBox="0 0 24 24">
      <path
        fill="currentcolor"
        d="M21.731 2.269a2.625 2.625 0 00-3.712 0l-1.157 1.157 3.712 3.712 1.157-1.157a2.625 2.625 0 000-3.712zM19.513 8.199l-3.712-3.712-12.15 12.15a5.25 5.25 0 00-1.32 2.214l-.8 2.685a.75.75 0 00.933.933l2.685-.8a5.25 5.25 0 002.214-1.32L19.513 8.2z"
      />
    </symbol> -->

    <symbol id="tfm-neue-oval" fill-rule="nonzero" viewBox="0 0 512 512">
        <circle
          transform="scale(3.7795276)"
          style="font-variation-settings:'wght' 900;fill:#000000;stroke-width:0.231364;-webkit-print-color-adjust:exact"
          id="path1-6"
          cx="67.73333"
          cy="67.73333"
          r="67.73333" />
        <path
          transform="scale(3.7795276)"
          id="path7-3-7"
          style="font-size:160.116px;font-family:'Inter V';-inkscape-font-specification:'Inter V, @wght=900';font-variation-settings:'wght' 900;dominant-baseline:ideographic;white-space:pre;fill:#ffffff;stroke-width:0.310429;-webkit-print-color-adjust:exact"
          d="m 14.007041,54.231501 v 7.907559 h 10.8724 v 18.945859 h 9.672533 V 62.13906 h 10.8724 v -7.907559 z m 35.088656,0 v 26.853418 h 9.813337 v -4.82522 H 72.958946 V 68.352138 H 58.909034 V 62.13906 h 15.603179 v -7.907559 z m 29.016835,0 v 26.853418 h 9.601935 v -11.74433 h 0.282413 l 4.553671,11.74433 h 12.802869 l 4.52987,-11.60313 h 0.28225 v 11.60313 h 9.60154 V 54.231501 H 107.55323 L 99.151508,74.706422 H 98.727905 L 90.326609,54.231501 Z" />
    </symbol>

    <!-- Platonic Solids Icons: Tetrahedron -->
    <symbol id="tetrahedron" fill-rule="evenodd" viewBox="0 0 512 512">
      <g transform="translate(64, 90)" stroke-linejoin="round">
        <path
          fill="none"
          stroke="currentStroke"
          d="M191.207631,221.049286 L191.207631,0.0100924963 C191.207631,0.0045185723 191.205445,0.00378963576 191.198901,0.0151387373 L0,331.573928 L191.207631,221.049286 Z"></path> <path d="M382.415261,221.049286 L382.415261,0.0100924821 C382.415261,0.00451855817 382.413076,0.00378962163 382.406531,0.0151387232 L191.216361,331.558789 C191.211539,331.56715 191.216361,331.568882 191.216361,331.568882 L382.415261,221.049286 Z" transform="translate(286.811446, 165.790046) scale(-1, 1) translate(-286.811446, -165.790046)"></path> <path d="M191.434296,221.049284 L2.84217094e-14,331.573926 L382.737783,331.377638 C382.747434,331.377633 382.746523,331.372591 382.746523,331.372591 L191.434296,221.049284 L191.434296,221.049284 Z"/>
      </g>
    </symbol>

    <!-- Platonic Solids Icons: Polyhedron -->
    <symbol id="polyhedron" fill-rule="evenodd" viewBox="0 0 512 512" stroke-linejoin="round">
      <g
        transform="translate(256.257812, 256.000000) scale(1, -1) translate(-256.257812, -256.000000) translate(56.257812, 56.000000)" stroke-linejoin="round"
        stroke="currentStroke"
      >
        <polygon points="200 0 373.205081 100 373.205081 300 200 400 26.7949192 300 26.7949192 100"/>
        <polygon points="200 0 373 300 27 300"/>
      </g>
    </symbol>

    <!-- Platonic Solids Icons: Icosahedron -->
    <symbol id="icosahedron" fill-rule="evenodd" viewBox="0 0 512 512" stroke-linejoin="round">
      <g
        stroke="currentStroke"
        transform="translate(256.248856, 255.821921) scale(1, -1) translate(-256.248856, -255.821921) translate(88.248856, 62.321921)"
      >
        <polygon points="167.954865 289.577363 0.965257562 289.577363 167.954871 386.103151"/>
        <polygon points="167.954877 289.577364 334.944484 289.577364 167.954871 386.103152"/>
        <polygon points="84.4600677 144.617242 167.954872 -3.68295744e-08 0.866280542 96.3543532"/>
        <polygon points="84.4600617 144.617252 0.96525788 289.234494 0.866279971 96.3543532"/>
        <polygon points="251.449674 144.617242 167.95487 -3.68295744e-08 335.043462 96.3543532"/>
        <polygon points="251.44968 144.617252 334.944484 289.234494 335.043462 96.3543532"/>
        <polygon points="167.954871 0 84.3924967 144.788682 251.558206 144.788682"/>
        <polygon points="84.4129769 144.788682 167.975351 289.577364 0.809642155 289.577364"/>
        <polygon points="251.578686 144.788682 335.14106 289.577364 167.975351 289.577364"/>
      </g>
    </symbol>

    <!-- Logotype: M -->
    <symbol id="f" fill-rule="evenodd" viewBox="0 0 512 512">
      <g transform="scale(3.7795276)">
        <path
          fill="currentcolor"
          stroke="currentStroke"
          d="M 26.404228,24.067717 V 111.39878 H 58.318619 V 95.7066 H 104.01107 V 69.990081 H 58.318619 V 49.78424 H 109.06249 V 24.067717 Z"
        />
      </g>
    </symbol>

    <!-- Logotype: F -->
    <symbol id="m" fill-rule="evenodd" viewBox="0 0 512 512">
      <g transform="scale(3.7795276)">
        <path
          fill="currentcolor"
          stroke="currentStroke"
           d="M 0,24.067717 V 111.39878 H 31.226885 V 73.20466 h 0.918439 l 14.809205,38.19412 H 88.591313 L 103.32324,73.663873 h 0.91779 v 37.734907 h 31.22564 V 24.067717 H 95.745432 L 68.421794,90.655136 H 67.044182 L 39.721946,24.067717 Z"
        />
      </g>
    </symbol>

    <!-- Seed of Life -->
  <symbol id="sol" fill-rule="evenodd" viewBox="0 0 546 546">
      <g
        fill="currentcolor"
        stroke="currentcolor"
      >
        <ellipse class="sol-ment oval oval-sm fill-none" rx="128" ry="128" cx="273" cy="273"/>
        <ellipse class="sol-corr oval oval-sm fill-none" rx="128" ry="128" cx="273" cy="145"/>
        <ellipse class="sol-vibr oval oval-sm fill-none" rx="128" ry="128" cx="384" cy="209"/>
        <ellipse class="sol-pola oval oval-sm fill-none" rx="128" ry="128" cx="384" cy="337"/>
        <ellipse class="sol-rhyt oval oval-sm fill-none" rx="128" ry="128" cx="273" cy="401"/>
        <ellipse class="sol-caus oval oval-sm fill-none" rx="128" ry="128" cx="162" cy="337"/>
        <ellipse class="sol-gend oval oval-sm fill-none" rx="128" ry="128" cx="162" cy="209"/>
        <ellipse class="sol-care oval oval-lg fill-none" rx="256" ry="256" cx="273" cy="273"/>
      </g>
    </symbol>





  </defs>
</svg>



  