<svg
  xmlns="http://www.w3.org/2000/svg"
  class="inline-block text-center align-baseline"
>
  <defs>

    <!-- 1. Mentalism -->
    <symbol id="Mentalism" fill-rule="evenodd" viewBox="0 0 512 512">
      <ellipse
        fill="currentcolor"
        rx="256"
        ry="256"
        cx="256"
        cy="256"
        transform="matrix(1, 0, 0, 1, 0, 0)"
      />
    </symbol>

    <!-- 2. Correspondence -->
    <symbol id="Correspondence" fill-rule="nonzero" viewBox="0 0 512 512">
      <path
        fill="currentcolor"
        rx="0"
        ry="0"
        d="M231.541,256.000L5.100,482.472C-5.795,493.368,1.921,512.000,17.330,512.000L494.670,512.000C510.079,512.000,517.795,493.368,506.900,482.472L280.459,256.000L506.900,29.528C517.795,18.632,510.079,0.000,494.670,0.000L17.330,0.000C1.921,0.000,-5.795,18.632,5.100,29.528L231.541,256.000ZM255.965,231.538L59.049,34.595L452.882,34.595L255.965,231.538ZL255.965,231.538Z"
      />
    </symbol>

    <!-- 3. Vibration -->
    <symbol id="Vibration" fill-rule="nonzero" viewBox="0 0 512 512">
      <path
        fill="currentcolor"
        d="M256.000,479.697C379.545,479.697,479.697,379.545,479.697,256.000C479.697,132.455,379.545,32.303,256.000,32.303C132.455,32.303,32.303,132.455,32.303,256.000C32.303,379.545,132.455,479.697,256.000,479.697ZZM256.000,512.000C114.615,512.000,0.000,397.385,0.000,256.000C0.000,114.615,114.615,0.000,256.000,0.000C397.385,0.000,512.000,114.615,512.000,256.000C512.000,397.385,397.385,512.000,256.000,512.000ZZM256.808,398.940C335.305,398.940,398.940,335.305,398.940,256.808C398.940,178.310,335.305,114.675,256.808,114.675C178.310,114.675,114.675,178.310,114.675,256.808C114.675,335.305,178.310,398.940,256.808,398.940ZZM256.808,431.243C160.470,431.243,82.372,353.146,82.372,256.808C82.372,160.470,160.470,82.372,256.808,82.372C353.146,82.372,431.243,160.470,431.243,256.808C431.243,353.146,353.146,431.243,256.808,431.243ZZM256.808,314.953C288.920,314.953,314.953,288.920,314.953,256.808C314.953,224.695,288.920,198.662,256.808,198.662C224.695,198.662,198.662,224.695,198.662,256.808C198.662,288.920,224.695,314.953,256.808,314.953ZZM256.808,347.256C206.855,347.256,166.360,306.761,166.360,256.808C166.360,206.855,206.855,166.360,256.808,166.360C306.761,166.360,347.256,206.855,347.256,256.808C347.256,306.761,306.761,347.256,256.808,347.256ZZ"
      />
    </symbol>

    <!-- 4. Polarity -->
    <symbol id="Polarity" fill-rule="nonzero" viewBox="0 0 512 512">
      <path
        fill="currentcolor"
        d="M474.561,255.574L256.000,37.013L37.439,255.574L474.561,255.574ZZM266.841,4.490L507.510,245.159C513.497,251.146,513.497,260.854,507.510,266.841L266.841,507.510C260.854,513.497,251.146,513.497,245.159,507.510L4.490,266.841C-1.497,260.854,-1.497,251.146,4.490,245.159L245.159,4.490C251.146,-1.497,260.854,-1.497,266.841,4.490ZZ"
      />
    </symbol>

    <!-- 5. Rhythm -->
    <symbol id="Rhythm" fill-rule="nonzero" viewBox="0 0 512 512">
      <path
        fill="currentcolor"
        d="M138.084,177.349C94.966,177.349,52.012,162.628,8.776,133.329C-0.320,127.151,-2.730,114.769,3.380,105.617C9.527,96.421,21.965,93.952,31.129,100.170C103.627,149.315,172.563,149.315,244.795,100.188C323.250,46.835,422.349,46.810,503.016,100.035C512.197,106.099,514.753,118.460,508.763,127.673C502.741,136.952,490.349,139.551,481.078,133.472C413.940,89.159,332.138,89.139,267.192,133.317C224.101,162.619,181.199,177.349,138.084,177.349ZZM503.009,237.281L503.009,237.281ZC512.193,243.346,514.751,255.702,508.766,264.923C502.744,274.201,490.348,276.799,481.078,270.722C413.925,226.414,332.122,226.391,267.191,270.567C224.104,299.866,181.202,314.594,138.075,314.602C94.964,314.602,52.013,299.879,8.777,270.579C-0.323,264.401,-2.732,252.013,3.371,242.884C9.511,233.665,21.960,231.200,31.128,237.420C103.627,286.566,172.563,286.570,244.794,237.438C323.241,184.089,422.340,184.065,503.009,237.281ZZM503.009,374.527L503.009,374.527ZC512.193,380.594,514.751,392.949,508.765,402.172C502.743,411.449,490.347,414.047,481.078,407.970C413.932,363.661,332.137,363.642,267.189,407.814C224.104,437.122,181.202,451.855,138.085,451.855C94.974,451.864,52.015,437.137,8.775,407.827C-0.324,401.647,-2.731,389.260,3.377,380.121C9.520,370.918,21.961,368.449,31.130,374.667C103.637,423.833,172.564,423.831,244.795,374.683C323.245,321.344,422.340,321.320,503.009,374.527ZZ"
      />
    </symbol>

    <!-- 6. Causality -->
    <symbol id="Causality" fill-rule="evenodd" viewBox="0 0 512 512">
      <path
        fill="currentcolor"
        d="M0.000,256.000C0.000,114.615,114.615,0.000,256.000,0.000C397.385,0.000,512.000,114.615,512.000,256.000C512.000,397.385,397.385,512.000,256.000,512.000C114.615,512.000,0.000,397.385,0.000,256.000ZZM256.000,29.880C131.117,29.880,29.880,131.117,29.880,256.000C29.880,380.883,131.117,482.120,256.000,482.120L256.000,29.880ZZM256.000,346.448C206.047,346.448,165.552,305.953,165.552,256.000C165.552,206.047,206.047,165.552,256.000,165.552C305.953,165.552,346.448,206.047,346.448,256.000C346.448,305.953,305.953,346.448,256.000,346.448ZZ"
      />
    </symbol>

    <!-- 7. Gender -->
    <symbol id="Gender" fill-rule="nonzero" viewBox="0 0 512 512">
      <path
        fill="currentcolor"
        d="M148.295,148.295C155.019,113.637,171.798,80.549,198.635,53.712C270.288,-17.941,386.498,-17.897,458.198,53.802C529.897,125.502,529.941,241.712,458.288,313.365C431.451,340.202,398.363,356.981,363.705,363.705C356.981,398.363,340.202,431.451,313.365,458.288C241.712,529.941,125.502,529.897,53.802,458.198C-17.897,386.498,-17.941,270.288,53.712,198.635C80.549,171.798,113.637,155.019,148.295,148.295ZL148.295,148.295ZZM181.090,144.938C228.854,144.338,276.818,162.269,313.275,198.725C349.731,235.182,367.662,283.146,367.062,330.910C392.392,324.320,416.350,311.106,436.190,291.267C495.635,231.822,495.598,135.399,436.100,75.900C376.601,16.402,280.178,16.365,220.733,75.810C200.894,95.650,187.680,119.608,181.090,144.938ZZM144.938,181.090C119.608,187.680,95.650,200.894,75.810,220.733C16.365,280.178,16.402,376.601,75.900,436.100C135.399,495.598,231.822,495.635,291.267,436.190C311.106,416.350,324.320,392.392,330.910,367.062C283.146,367.662,235.182,349.731,198.725,313.275C162.269,276.818,144.338,228.854,144.938,181.090ZZM176.338,176.338C174.429,217.653,189.258,259.611,220.824,291.176C252.389,322.742,294.347,337.571,335.662,335.662C337.571,294.347,322.742,252.389,291.176,220.824C259.611,189.258,217.653,174.429,176.338,176.338ZL176.338,176.338ZZ"
      />
    </symbol>

    <!-- 8. Care -->
    <symbol id="Care" fill-rule="nonzero" viewBox="0 0 512 512">
      <path
        fill="currentcolor"
        d="M256.000,479.697C379.545,479.697,479.697,379.545,479.697,256.000C479.697,132.455,379.545,32.303,256.000,32.303C132.455,32.303,32.303,132.455,32.303,256.000C32.303,379.545,132.455,479.697,256.000,479.697ZZM256.000,512.000C114.615,512.000,0.000,397.385,0.000,256.000C0.000,114.615,114.615,0.000,256.000,0.000C397.385,0.000,512.000,114.615,512.000,256.000C512.000,397.385,397.385,512.000,256.000,512.000ZZ"
      />
    </symbol>

    <!-- 8a. Care: Stroke-->
    <symbol id="CarePath" fill-rule="evenodd" viewBox="0 0 512 512">
      <ellipse
        rx="239.5"
        ry="239.5"
        style="fill:none;fill-opacity:none;stroke-width:32;stroke:#000000;stroke-opacity:1;stroke-dasharray:"
        cx="256"
        cy="256"
      />
    </symbol>

    <!-- END Picons -->
  </defs>
</svg>

  