<?xml version="1.0" standalone="no"?>
<!DOCTYPE svg PUBLIC "-//W3C//DTD SVG 20010904//EN"
 "http://www.w3.org/TR/2001/REC-SVG-20010904/DTD/svg10.dtd">
<svg version="1.0" xmlns="http://www.w3.org/2000/svg"
 width="700.000000pt" height="700.000000pt" viewBox="0 0 700.000000 700.000000"
 preserveAspectRatio="xMidYMid meet">
<metadata>
Created by potrace 1.14, written by Peter Selinger 2001-2017
</metadata>
<g transform="translate(0.000000,700.000000) scale(0.100000,-0.100000)"
fill="#000000" stroke="none">
<path d="M3280 6994 c-19 -2 -84 -9 -145 -14 -639 -62 -1264 -315 -1795 -726
-149 -115 -481 -446 -595 -594 -410 -532 -653 -1132 -727 -1795 -17 -155 -17
-575 0 -730 75 -673 332 -1300 748 -1820 114 -143 339 -372 484 -494 537 -451
1163 -717 1885 -803 142 -17 586 -17 730 0 682 79 1268 318 1802 734 138 107
389 351 512 498 451 538 717 1162 803 1885 16 139 16 595 0 730 -77 629 -275
1158 -620 1649 -234 333 -577 668 -917 896 -460 308 -968 495 -1535 566 -117
15 -552 27 -630 18z m-930 -2999 l0 -205 -280 0 -280 0 0 -490 0 -490 -250 0
-250 0 0 490 0 490 -285 0 -285 0 0 198 c0 109 3 202 7 205 3 4 370 7 815 7
l808 0 0 -205z m1500 0 l0 -205 -405 0 -405 0 0 -160 0 -160 365 0 365 0 0
-205 0 -205 -365 0 -365 0 0 -125 0 -125 -250 0 -250 0 0 695 0 695 655 0 655
0 0 -205z m1000 -242 c101 -247 199 -485 218 -530 19 -46 39 -83 46 -83 6 0
108 238 227 528 l215 527 317 3 317 2 0 -695 0 -695 -250 0 -250 0 0 301 c0
165 -4 298 -8 295 -4 -2 -59 -138 -122 -300 l-115 -296 -331 0 -332 0 -41 108
c-164 422 -196 500 -203 496 -4 -3 -8 -140 -8 -305 l0 -299 -245 0 -245 0 0
695 0 695 313 0 313 0 184 -447z"/>
</g>
</svg>
